# xmcd
#
# Track frame offsets:
#	150
#	23332
#	49547
#	69467
#	94750
#	114980
#	135987
#	161252
#	186545
#	207405
#	235820
#	260330
#	285412
#
# Disc length: 4101 seconds
#
# Revision: 1
# Processed by: cddbd v1.5PL3 Copyright (c) Steve Scherf et al.
# Submitted via: CDex 1.50Beta5
#
DISCID=a510030d
DTITLE=MISIA and CALYN and TIGER - SLOW★JAM
DYEAR=1900
DGENRE=R&B
TTITLE0=飛び方を忘れた小さな鳥(STAR OCEAN VERSION)/MISIA
TTITLE1=ETERNITY/CALYN
TTITLE2=サルビアの涙/TIGER
TTITLE3=THE BEST OF TIME/MISIA
TTITLE4=FOR YOUR LOVE/CALYN
TTITLE5=A LOVE STORY/TIGER
TTITLE6=ALWAYS/MISIA
TTITLE7=SEA SONG/CALYN
TTITLE8=素敵な嘘なら/TIGER
TTITLE9=RAINY DAYS/CALYN
TTITLE10=眠れぬ夜は君のせい/MISIA
TTITLE11=POPLAR/CALYN
TTITLE12=INDIGO WALTZ(LIVE VERSION)/MISIA
EXTD=
EXTT0=
EXTT1=
EXTT2=
EXTT3=
EXTT4=
EXTT5=
EXTT6=
EXTT7=
EXTT8=
EXTT9=
EXTT10=
EXTT11=
EXTT12=
PLAYORDER=
